<svg width="255" height="237" viewBox="0 0 255 237" fill="none" xmlns="http://www.w3.org/2000/svg">
<path d="M214.22 222.5H230.74C230.791 222.5 230.842 222.487 230.888 222.464C230.933 222.44 230.973 222.405 231.002 222.363C231.031 222.321 231.05 222.272 231.057 222.221C231.063 222.17 231.058 222.118 231.04 222.07L165.02 49.75C164.997 49.6887 164.956 49.6359 164.903 49.5986C164.849 49.5613 164.785 49.5413 164.72 49.5413C164.655 49.5413 164.591 49.5613 164.537 49.5986C164.484 49.6359 164.443 49.6887 164.42 49.75L146.79 96.05C146.767 96.1112 146.726 96.164 146.673 96.2013C146.619 96.2386 146.555 96.2586 146.49 96.2586C146.425 96.2586 146.361 96.2386 146.307 96.2013C146.254 96.164 146.213 96.1112 146.19 96.05L118.71 24.44C118.684 24.3689 118.684 24.291 118.71 24.22L127.4 0.689971C127.422 0.628331 127.462 0.574811 127.515 0.536601C127.568 0.498401 127.631 0.477331 127.697 0.476241C127.762 0.475151 127.826 0.494091 127.88 0.530511C127.934 0.566931 127.976 0.619091 128 0.679971L146.51 47.05C146.535 47.1077 146.577 47.1566 146.63 47.1906C146.683 47.2246 146.745 47.2421 146.808 47.241C146.871 47.24 146.933 47.2203 146.985 47.1846C147.036 47.1488 147.077 47.0985 147.1 47.04L164.42 1.41997C164.443 1.35873 164.484 1.30591 164.537 1.26861C164.591 1.23132 164.655 1.21133 164.72 1.21133C164.785 1.21133 164.849 1.23132 164.903 1.26861C164.956 1.30591 164.997 1.35873 165.02 1.41997L254.61 236.57C254.627 236.618 254.633 236.668 254.627 236.719C254.621 236.769 254.603 236.817 254.575 236.859C254.547 236.901 254.509 236.936 254.464 236.96C254.42 236.985 254.371 236.998 254.32 237H200.14C200.076 237.001 200.013 236.982 199.959 236.946C199.906 236.911 199.864 236.86 199.84 236.8L154.96 120.9C154.934 120.829 154.934 120.751 154.96 120.68L163.3 97.99C163.322 97.9283 163.362 97.8748 163.415 97.8366C163.468 97.7984 163.531 97.7773 163.597 97.7762C163.662 97.7752 163.726 97.7941 163.78 97.8305C163.834 97.8669 163.876 97.9191 163.9 97.98L213.92 222.3C213.944 222.36 213.986 222.411 214.039 222.446C214.093 222.482 214.156 222.501 214.22 222.5ZM89.15 146.05C89.1268 145.986 89.0846 145.931 89.0292 145.893C88.9737 145.854 88.9077 145.833 88.84 145.833C88.7723 145.833 88.7063 145.854 88.6508 145.893C88.5954 145.931 88.5532 145.986 88.53 146.05L53.55 236.6C53.5054 236.718 53.426 236.819 53.3224 236.89C53.2188 236.962 53.0959 237 52.97 237H0.510009C0.156679 237 0.0433486 236.833 0.170009 236.5C29.1833 161.433 57.8533 86.2466 86.18 10.94C87.3933 7.71997 88.5667 4.4833 89.7 1.22997C89.7191 1.16722 89.7576 1.11213 89.8099 1.07262C89.8623 1.03312 89.9258 1.01124 89.9914 1.01013C90.057 1.00902 90.1212 1.02873 90.1749 1.06644C90.2285 1.10414 90.2688 1.1579 90.29 1.21997L179.59 236.35C179.618 236.423 179.627 236.501 179.618 236.578C179.608 236.655 179.58 236.729 179.536 236.793C179.492 236.857 179.432 236.909 179.363 236.945C179.294 236.981 179.218 237 179.14 237H74.84C74.5733 237 74.4867 236.877 74.58 236.63L99.17 172.74C99.29 172.44 99.29 172.14 99.17 171.84L89.15 146.05ZM39.11 222.5C39.1783 222.501 39.2453 222.482 39.3024 222.444C39.3594 222.407 39.4039 222.353 39.43 222.29L88.7 99.07C88.7255 99.007 88.7691 98.9536 88.8252 98.9159C88.8813 98.8781 88.9474 98.8579 89.015 98.8579C89.0827 98.8579 89.1488 98.8781 89.2049 98.9159C89.261 98.9536 89.3046 99.007 89.33 99.07L132.36 208.31C132.382 208.362 132.39 208.419 132.384 208.475C132.378 208.531 132.359 208.585 132.327 208.631C132.295 208.678 132.252 208.716 132.202 208.742C132.152 208.768 132.096 208.781 132.04 208.78L113.52 208.74C113.452 208.738 113.387 208.717 113.331 208.677C113.276 208.638 113.234 208.583 113.21 208.52L108.94 197.15C108.916 197.084 108.873 197.027 108.816 196.987C108.758 196.946 108.69 196.925 108.62 196.925C108.55 196.925 108.482 196.946 108.424 196.987C108.367 197.027 108.324 197.084 108.3 197.15L98.78 222.04C98.7608 222.091 98.7541 222.145 98.7604 222.199C98.7667 222.253 98.7858 222.305 98.8161 222.35C98.8465 222.395 98.8872 222.432 98.9349 222.458C98.9825 222.484 99.036 222.499 99.09 222.5H155.16C155.215 222.5 155.27 222.487 155.319 222.462C155.367 222.436 155.409 222.399 155.441 222.354C155.472 222.309 155.493 222.257 155.499 222.202C155.506 222.147 155.499 222.092 155.48 222.04L90.61 49.81C90.5864 49.7441 90.5429 49.6871 90.4856 49.6468C90.4284 49.6065 90.36 49.5849 90.29 49.5849C90.22 49.5849 90.1517 49.6065 90.0944 49.6468C90.0371 49.6871 89.9937 49.7441 89.97 49.81L24 222.04C23.9808 222.091 23.9741 222.145 23.9804 222.199C23.9867 222.253 24.0058 222.305 24.0361 222.35C24.0665 222.395 24.1072 222.432 24.1549 222.458C24.2025 222.484 24.2557 222.499 24.31 222.5H39.11Z" fill="white"/>
</svg>
